# xmcd CD database file
#
# Track frame offsets:
#	150
#	19340
#	36027
#	57015
#	71422
#	93037
#	105667
#	122722
#	140420
#	156835
#	182315
#
# Disc length: 2679 seconds
#
# Revision: 2
# Processed by: cddbd v1.4PL0 Copyright (c) Steve Scherf et al.
# Submitted via: CDex 1.50beta9
#
DISCID=840a750b
DTITLE=Percy Sledge - Blue Night
DYEAR=1994
DGENRE=R&B
TTITLE0=You Got Away With Love
TTITLE1=Love Come Knockin'
TTITLE2=Why Did You Stop
TTITLE3=I Wish It Would Rain
TTITLE4=Blue Night
TTITLE5=These Ain't Raindrops
TTITLE6=Your Love Will Save The World
TTITLE7=First You Cry
TTITLE8=Goin' Home
TTITLE9=The Grand Boulevard
TTITLE10=I've Got Dreams to Remember
EXTD=YEAR: 1994
EXTT0=
EXTT1=
EXTT2=
EXTT3=
EXTT4=
EXTT5=
EXTT6=
EXTT7=
EXTT8=
EXTT9=
EXTT10=
PLAYORDER=
